<svg xmlns="http://www.w3.org/2000/svg" viewBox="0 0 128 128" width="128" height="128"><defs><linearGradient id="g" x1="0" y1="0" x2="1" y2="1"><stop offset="0" stop-color="#6d28d9"/><stop offset="1" stop-color="#9333ea"/></linearGradient><linearGradient id="sheen" x1="0" y1="0" x2="0" y2="1"><stop offset="0" stop-color="#fff" stop-opacity="0.18"/><stop offset="0.5" stop-color="#fff" stop-opacity="0"/></linearGradient></defs><rect x="6" y="6" width="116" height="116" rx="30" fill="url(#g)"/><rect x="6" y="6" width="116" height="116" rx="30" fill="url(#sheen)"/><rect x="24" y="26" width="80" height="74" rx="11" fill="#ffffff"/><rect x="32" y="34" width="64" height="30" rx="5" fill="#ddd6fe"/><circle cx="49.92" cy="44.2" r="3.9000000000000004" fill="#fde68a"/><path d="M35 61 L57.6 47.5 L70.4 55.599999999999994 L81.92 46.0 L93 61 Z" fill="#7c3aed"/><rect x="32" y="72" width="64" height="7" rx="3.5" fill="#475569"/><rect x="32" y="84" width="48" height="7" rx="3.5" fill="#64748b"/><rect x="69.0" y="82.0" width="46" height="28" rx="14.0" fill="#6d28d9"/><rect x="72.0" y="85.0" width="40" height="22" rx="11.0" fill="#ffffff"/><text x="92" y="101.5" text-anchor="middle" font-family="Liberation Sans, DejaVu Sans, Arial, sans-serif" font-weight="700" font-size="14" letter-spacing="0.5" fill="#9333ea">ALT</text></svg>
